<?xml version="1.0" encoding="UTF-8"?>
<svg xmlns="http://www.w3.org/2000/svg" xmlns:xlink="http://www.w3.org/1999/xlink" width="375pt" height="374.999991pt" viewBox="0 0 375 374.999991" version="1.2">
<defs>
<clipPath id="clip1">
  <path d="M 70.441406 81 L 124 81 L 124 270 L 70.441406 270 Z M 70.441406 81 "/>
</clipPath>
<clipPath id="clip2">
  <path d="M 70.441406 279 L 304.441406 279 L 304.441406 298.132812 L 70.441406 298.132812 Z M 70.441406 279 "/>
</clipPath>
<clipPath id="clip3">
  <path d="M 203 76.882812 L 304.441406 76.882812 L 304.441406 270 L 203 270 Z M 203 76.882812 "/>
</clipPath>
</defs>
<g id="surface1">
<g clip-path="url(#clip1)" clip-rule="nonzero">
<path style=" stroke:none;fill-rule:nonzero;fill:rgb(19.999695%,47.839355%,71.759033%);fill-opacity:1;" d="M 117.332031 269.859375 L 77.269531 269.859375 C 73.730469 269.859375 70.824219 266.957031 70.824219 263.421875 L 70.824219 87.484375 C 70.824219 83.949219 73.730469 81.046875 77.269531 81.046875 L 117.332031 81.046875 C 120.871094 81.046875 123.777344 83.949219 123.777344 87.484375 L 123.777344 263.421875 C 123.777344 266.957031 120.871094 269.859375 117.332031 269.859375 Z M 117.332031 269.859375 "/>
</g>
<g clip-path="url(#clip2)" clip-rule="nonzero">
<path style=" stroke:none;fill-rule:nonzero;fill:rgb(100%,100%,100%);fill-opacity:1;" d="M 304.492188 282.734375 L 304.492188 294.597656 C 304.492188 296.617188 302.851562 298.132812 300.957031 298.132812 L 74.363281 298.132812 C 72.34375 298.132812 70.824219 296.492188 70.824219 294.597656 L 70.824219 282.734375 C 70.824219 280.714844 72.46875 279.199219 74.363281 279.199219 L 300.957031 279.199219 C 302.976562 279.199219 304.492188 280.839844 304.492188 282.734375 Z M 304.492188 282.734375 "/>
</g>
<path style=" stroke:none;fill-rule:nonzero;fill:rgb(100%,100%,100%);fill-opacity:1;" d="M 184.941406 269.859375 L 144.882812 269.859375 C 141.34375 269.859375 138.4375 266.957031 138.4375 263.421875 L 138.4375 87.484375 C 138.4375 83.949219 141.34375 81.046875 144.882812 81.046875 L 184.941406 81.046875 C 188.480469 81.046875 191.386719 83.949219 191.386719 87.484375 L 191.386719 263.421875 C 191.261719 266.957031 188.480469 269.859375 184.941406 269.859375 Z M 184.941406 269.859375 "/>
<g clip-path="url(#clip3)" clip-rule="nonzero">
<path style=" stroke:none;fill-rule:nonzero;fill:rgb(100%,100%,100%);fill-opacity:1;" d="M 299.945312 258.25 L 261.527344 269.480469 C 258.113281 270.492188 254.574219 268.597656 253.566406 265.191406 L 203.773438 96.445312 C 202.761719 93.035156 204.65625 89.503906 208.070312 88.492188 L 246.488281 77.132812 C 249.898438 76.125 253.4375 78.015625 254.449219 81.425781 L 304.242188 250.296875 C 305.253906 253.703125 303.355469 257.238281 299.945312 258.25 Z M 299.945312 258.25 "/>
</g>
</g>
</svg>
