<?xml version="1.0"?>
<svg xmlns="http://www.w3.org/2000/svg" xmlns:xlink="http://www.w3.org/1999/xlink" xmlns:svgjs="http://svgjs.com/svgjs" version="1.1" width="512" height="512" x="0" y="0" viewBox="0 0 64 64" style="enable-background:new 0 0 512 512" xml:space="preserve" class=""><g><g xmlns="http://www.w3.org/2000/svg" id="Fill_Outline" data-name="Fill Outline"><g id="Color"><g><path d="m24.23 4.431-19.091.708-.708 19.091 36.769 36.77 19.8-19.8zm-12.73 11.314a3 3 0 1 1 4.242 0 3 3 0 0 1 -4.242 0z" fill="#ffffff" data-original="#84d2f4" style="" class=""/><path d="m25.645 33.444-20.785-20.785-.429 11.571 36.769 36.77 19.8-19.8-6.106-6.1a22 22 0 0 1 -29.249-1.656z" fill="#ffffff" data-original="#57b7eb" style="" class=""/><g><g><path d="m25.281 39.423a1.939 1.939 0 0 0 2.37.291l5.772-3.463-2.829-2.828-4.94 2.964a1.94 1.94 0 0 0 -.373 3.036z" fill="#ffffff" data-original="#f9e109" style="" class=""/><path d="m39.08 30.594-5.657 5.657a25.423 25.423 0 0 0 -9.935-6.14l-.672-.224 9.9-9.9.224.672a25.407 25.407 0 0 0 6.14 9.935z" fill="#ffffff" data-original="#c4f236" style="" class=""/><path d="m39.665 30.837a0 0 0 0 1 0 0v8a0 0 0 0 1 0 0 4 4 0 0 1 -4-4 4 4 0 0 1 4-4z" fill="#ffffff" transform="matrix(-.707 -.707 .707 -.707 39.665 86.104)" data-original="#f9e109" style="" class=""/></g><path d="m38 33a2.982 2.982 0 0 1 1.137-2.335c-.021-.022-.035-.049-.057-.071l-5.657 5.657a4 4 0 0 0 6.163-.62 2.988 2.988 0 0 1 -1.586-2.631z" fill="#ffffff" data-original="#fcbc04" style="" class=""/><path d="m30.594 33.423-1.37.822a1.993 1.993 0 0 1 -.5 3.054l-3.524 2.017c.031.035.052.074.085.107a1.939 1.939 0 0 0 2.37.291l5.772-3.463z" fill="#ffffff" data-original="#fcbc04" style="" class=""/><path d="m38.219 30.756a9 9 0 0 1 -9.482-4.195l-.973-1.621-4.948 4.947.672.224a25.423 25.423 0 0 1 9.935 6.14l5.657-5.657-.008-.008z" fill="#ffffff" data-original="#a1d51c" style="" class=""/><path d="m27.645 35.193-1.991 1.194a1.94 1.94 0 1 0 2 3.327l3.659-2.2a21.818 21.818 0 0 1 -3.668-2.321z" fill="#ffffff" data-original="#fcbc04" style="" class=""/><path d="m29.491 36.491a1.948 1.948 0 0 1 -.764.808l-3.527 2.017c.031.035.052.074.085.107a1.939 1.939 0 0 0 2.37.291l3.659-2.2q-.932-.463-1.823-1.023z" fill="#ffffff" data-original="#e59730" style="" class=""/></g><path d="m46.393 37.08h8v4h-8z" fill="#ffffff" transform="matrix(.707 .707 -.707 .707 42.393 -24.187)" data-original="#f9e109" style="" class=""/><path d="m49.686 39.2-2.535-2.536-1 1 5.657 5.657 2.828-2.828-1.029-1.03a2.992 2.992 0 0 1 -3.921-.263z" fill="#ffffff" data-original="#fcbc04" style="" class=""/><path d="m51.808 43.322 2.828-2.828-3.159-3.16a21.863 21.863 0 0 1 -4.029 1.629z" fill="#ffffff" data-original="#fcbc04" style="" class=""/><path d="m51.808 43.322 2.828-2.828-1.029-1.03a2.992 2.992 0 0 1 -3.921-.263l-.747-.747c-.493.185-.988.36-1.491.509z" fill="#ffffff" data-original="#e59730" style="" class=""/><path d="m57 22h-6l3-4z" fill="#ffffff" data-original="#f9e109" style="" class=""/><path d="m52 9v-6l4 3z" fill="#ffffff" data-original="#f9e109" style="" class=""/><path d="m54 19v-1l-3 4h6a3 3 0 0 1 -3-3z" fill="#ffffff" data-original="#fcbc04" style="" class=""/><path d="m17 45h-6l3-4z" fill="#ffffff" data-original="#f9e109" style="" class=""/><g fill="#fcbc04"><path d="m14 42v-1l-3 4h6a3 3 0 0 1 -3-3z" fill="#ffffff" data-original="#fcbc04" style="" class=""/><path d="m52 3v6l4-3h-1a3 3 0 0 1 -3-3z" fill="#ffffff" data-original="#fcbc04" style="" class=""/></g></g></g><g id="Outline_copy" data-name="Outline copy"><g fill="#39519d"><path d="m61.707 40.494-2.707-2.707v-6.787a3 3 0 0 0 -3-3 1 1 0 0 1 -1-1v-4h2a1 1 0 0 0 .8-1.6l-3-4a1.036 1.036 0 0 0 -1.6 0l-3 4a1 1 0 0 0 .8 1.6h2v4a3 3 0 0 0 3 3 1 1 0 0 1 1 1v4.787l-9.979-9.979a1 1 0 0 0 -1.415 1.414l13.98 13.978-18.386 18.386-35.753-35.754.253-6.808a1 1 0 0 0 -2-.074l-.267 7.243a1 1 0 0 0 .292.745l36.769 36.769a1 1 0 0 0 1.414 0l15.092-15.092v4.385a1 1 0 0 0 2 0v-6.385l2.707-2.707a1 1 0 0 0 0-1.414zm-7.707-20.827 1 1.333h-2z" fill="#000000" data-original="#39519d" style="" class=""/><path d="m4.811 13.988a.987.987 0 0 0 1.036-.962l.253-6.926 17.728-.657 4.172 4.175-2.285-.286a10.381 10.381 0 0 0 -5.511.815l-3.171 1.41a3.945 3.945 0 0 0 -.583-.761 4.093 4.093 0 0 0 -5.656 0 4 4 0 1 0 6.828 2.828c0-.046-.012-.089-.013-.134l3.408-1.514a8.415 8.415 0 0 1 4.45-.66l4.836.6 12.475 12.478a1 1 0 1 0 1.414-1.415l-10.655-10.655.78.1a10.312 10.312 0 0 0 8.639-2.964 8.337 8.337 0 0 1 5.935-2.46h2.109v2a1 1 0 0 0 1.6.8l4-3a1 1 0 0 0 0-1.6l-4-3a1 1 0 0 0 -1.6.8v2h-2.109a10.323 10.323 0 0 0 -7.349 3.044 8.355 8.355 0 0 1 -6.977 2.394l-3.331-.417-6.3-6.3a.96.96 0 0 0 -.744-.292l-19.09.711a1 1 0 0 0 -.96.96l-.291 7.85a1 1 0 0 0 .962 1.038zm10.227 1.05a2.047 2.047 0 0 1 -2.828 0 2 2 0 1 1 2.828-2.828 2.062 2.062 0 0 1 .141.171l-1.585.705a1 1 0 0 0 .406 1.914.99.99 0 0 0 .405-.086l1.031-.458a1.993 1.993 0 0 1 -.398.582zm37.962-10.038 1.333 1-1.333 1z" fill="#000000" data-original="#39519d" style="" class=""/><path d="m23.734 37.692a2.939 2.939 0 0 0 4.431 2.88l5.175-3.105a4.991 4.991 0 0 0 6.447-7.579 24.55 24.55 0 0 1 -5.9-9.543l-.224-.672a1 1 0 0 0 -1.656-.392l-2.95 2.949a1 1 0 1 0 1.414 1.415l1.818-1.818a26.588 26.588 0 0 0 5.389 8.754l-2.136 2.135-2.135 2.135a26.582 26.582 0 0 0 -8.754-5.388l2.99-2.99a1 1 0 1 0 -1.415-1.414l-4.121 4.122a1 1 0 0 0 .392 1.656l.671.223a24.48 24.48 0 0 1 5.26 2.493l-3.29 1.976a2.922 2.922 0 0 0 -1.406 2.163zm14.639-2.148a3.066 3.066 0 0 1 -3.416.587l2-2 2-2a3 3 0 0 1 -.584 3.413zm-12.2 1.7 4.065-2.439c.53.4 1.047.823 1.542 1.268l-4.64 2.784a.94.94 0 0 1 -.967-1.613z" fill="#000000" data-original="#39519d" style="" class=""/><path d="m27.766 18.866a.973.973 0 0 0 .316-.052 1 1 0 0 0 .632-1.264l-.707-2.121a1 1 0 0 0 -1.9.633l.707 2.121a1 1 0 0 0 .952.683z" fill="#000000" data-original="#39519d" style="" class=""/><path d="m24.23 22.4a1 1 0 0 0 .707-1.707l-2.121-2.122a1 1 0 0 0 -1.416 1.416l2.121 2.122a1 1 0 0 0 .709.291z" fill="#000000" data-original="#39519d" style="" class=""/><path d="m21.012 23.989-2.122-.707a1 1 0 0 0 -.633 1.9l2.122.707a1 1 0 0 0 .633-1.9z" fill="#000000" data-original="#39519d" style="" class=""/><path d="m53.929 41.2a1 1 0 0 0 1.414-1.414l-5.656-5.656a1 1 0 0 0 -1.415 0l-2.829 2.828a1 1 0 0 0 0 1.414l5.657 5.657a1 1 0 0 0 1.414-1.414l-4.951-4.95 1.415-1.414z" fill="#000000" data-original="#39519d" style="" class=""/><path d="m46.857 45.029a1 1 0 0 0 .707-1.707l-3.535-3.535a1 1 0 0 0 -1.414 1.413l3.535 3.535a1 1 0 0 0 .707.294z" fill="#000000" data-original="#39519d" style="" class=""/><path d="m44.029 45.443-2.829-2.828a1 1 0 0 0 -1.414 1.414l2.828 2.828a1 1 0 0 0 1.414-1.414z" fill="#000000" data-original="#39519d" style="" class=""/><path d="m43.322 52.808a1 1 0 0 0 .707-1.707l-5.657-5.658a1 1 0 0 0 -1.414 1.414l5.657 5.658a1 1 0 0 0 .707.293z" fill="#000000" data-original="#39519d" style="" class=""/><path d="m36.958 52.515a1 1 0 0 0 1.414-1.415l-2.828-2.829a1 1 0 0 0 -1.414 1.415z" fill="#000000" data-original="#39519d" style="" class=""/><path d="m35 8a3 3 0 1 0 -3-3 3 3 0 0 0 3 3zm0-4a1 1 0 1 1 -1 1 1 1 0 0 1 1-1z" fill="#000000" data-original="#39519d" style="" class=""/><path d="m49.426 11.077a1 1 0 0 0 -1.414 0l-.707.707-.707-.707a1 1 0 1 0 -1.414 1.414l.707.708-.707.707a1 1 0 1 0 1.416 1.414l.707-.707.707.707a1 1 0 0 0 1.414-1.414l-.707-.707.707-.708a1 1 0 0 0 -.002-1.414z" fill="#000000" data-original="#39519d" style="" class=""/><path d="m14.8 40.4a1.036 1.036 0 0 0 -1.6 0l-3 4a1 1 0 0 0 .8 1.6h2v7.5a2.5 2.5 0 0 1 -2.5 2.5 4.505 4.505 0 0 0 -4.5 4.5v.5a1 1 0 0 0 2 0v-.5a2.5 2.5 0 0 1 2.5-2.5 4.505 4.505 0 0 0 4.5-4.5v-7.5h2a1 1 0 0 0 .8-1.6zm-1.8 3.6 1-1.333 1 1.333z" fill="#000000" data-original="#39519d" style="" class=""/><path d="m8 40a3 3 0 1 0 -3 3 3 3 0 0 0 3-3zm-3 1a1 1 0 1 1 1-1 1 1 0 0 1 -1 1z" fill="#000000" data-original="#39519d" style="" class=""/><path d="m23.426 53.077a1 1 0 0 0 -1.414 0l-.707.707-.707-.707a1 1 0 1 0 -1.414 1.414l.707.708-.707.707a1 1 0 1 0 1.416 1.414l.707-.707.707.707a1 1 0 1 0 1.414-1.414l-.707-.707.707-.708a1 1 0 0 0 -.002-1.414z" fill="#000000" data-original="#39519d" style="" class=""/><path d="m55.426 56.077a1 1 0 0 0 -1.414 0l-.707.707-.707-.707a1 1 0 0 0 -1.414 1.414l.707.708-.707.707a1 1 0 1 0 1.416 1.414l.707-.707.707.707a1 1 0 0 0 1.414-1.414l-.707-.707.707-.708a1 1 0 0 0 -.002-1.414z" fill="#000000" data-original="#39519d" style="" class=""/></g></g></g></g></svg>
